<svg xmlns="http://www.w3.org/2000/svg" width="192.802" height="444.176" viewBox="0 0 192.802 444.176">
  <g id="组_336" data-name="组 336" transform="translate(-3298 2378)">
    <path id="路径_124" data-name="路径 124" d="M817.878,1862.454h-7.561l2.791-8.506a1.578,1.578,0,0,0-1.52-1.978h-9.436a1.575,1.575,0,0,0-1.559,1.363l-2.1,15.726a1.576,1.576,0,0,0,1.56,1.782h7.777l-3.02,12.744a1.571,1.571,0,0,0,2.889,1.147l11.533-19.919A1.57,1.57,0,0,0,817.878,1862.454Z" transform="translate(2508.518 -4229.97)" fill="rgba(255,255,255,0.5)"/>
    <path id="路径_125" data-name="路径 125" d="M979.327,1986.174l-1.412-1.412a1,1,0,0,0-1.411,0l-.705.706-1.8-1.8a3.975,3.975,0,0,0-1.02-3.842L970.155,1977a9.979,9.979,0,0,0-14.111,0l5.644,2.822v1.17a3.99,3.99,0,0,0,1.169,2.822l3.065,3.064a3.975,3.975,0,0,0,3.842,1.02l1.8,1.8-.7.7a1,1,0,0,0,0,1.412l1.411,1.411a1,1,0,0,0,1.412,0l5.644-5.645a1,1,0,0,0,0-1.41Zm-17.881-.948a6.011,6.011,0,0,1-.614-.745l-15.909,14.853a3.856,3.856,0,1,0,5.45,5.45l14.851-15.907a5.924,5.924,0,0,1-.713-.587l-3.065-3.064Z" transform="translate(2509.302 -4234.079)" fill="rgba(255,255,255,0.5)"/>
    <path id="路径_126" data-name="路径 126" d="M978.362,2048.082l-6.937-2.6v-7.791a2.585,2.585,0,0,0-1.68-2.42l-7.181-2.693a2.551,2.551,0,0,0-1.817,0l-7.181,2.693a2.584,2.584,0,0,0-1.681,2.42v7.791l-6.937,2.6a2.589,2.589,0,0,0-1.673,2.42v7.906a2.588,2.588,0,0,0,1.429,2.313l7.181,3.59a2.568,2.568,0,0,0,2.313,0l7.461-3.734,7.461,3.734a2.565,2.565,0,0,0,2.312,0l7.182-3.59a2.588,2.588,0,0,0,1.429-2.313V2050.5A2.585,2.585,0,0,0,978.362,2048.082Zm-9.378-2.542-6.1,2.291v-4.9l6.1-2.657Zm-14.65-7.95,7.325-2.743,7.325,2.743v.043l-7.325,2.973-7.325-2.973Zm6.032,20.905-6.1,3.052v-5.681l6.1-2.786Zm0-8.043-7.325,2.973-7.324-2.973v-.043l7.324-2.744,7.325,2.744ZM977.6,2058.5l-6.1,3.052v-5.681l6.1-2.786Zm0-8.043-7.325,2.973-7.325-2.973v-.043l7.325-2.744,7.325,2.744Z" transform="translate(2508.725 -4233.411)" fill="rgba(255,255,255,0.5)"/>
    <path id="路径_127" data-name="路径 127" d="M814.744,1916.738a5.777,5.777,0,1,1-5.778-5.778A5.774,5.774,0,0,1,814.744,1916.738Zm8.346-5.778a5.778,5.778,0,1,0,5.778,5.778A5.774,5.774,0,0,0,823.09,1910.96Zm-28.247,0a5.778,5.778,0,1,0,5.778,5.778A5.774,5.774,0,0,0,794.843,1910.96Z" transform="translate(2508.935 -4221.96)" fill="rgba(255,255,255,0.5)"/>
    <path id="路径_128" data-name="路径 128" d="M826.634,1982.045l-1.411-1.411a1,1,0,0,0-1.411,0l-.705.7-1.8-1.8a3.974,3.974,0,0,0-1.019-3.842l-2.822-2.822a9.978,9.978,0,0,0-14.112,0l5.645,2.822v1.169a3.989,3.989,0,0,0,1.169,2.822l3.065,3.065a3.974,3.974,0,0,0,3.842,1.019l1.8,1.8-.705.706a1,1,0,0,0,0,1.411l1.411,1.411a1,1,0,0,0,1.411,0l5.645-5.644a1,1,0,0,0,0-1.411Zm-17.88-.948a6.053,6.053,0,0,1-.615-.745L792.231,1995.2a3.856,3.856,0,1,0,5.45,5.451l14.851-15.907a6.109,6.109,0,0,1-.714-.587l-3.064-3.065Z" transform="translate(2508.994 -4229.95)" fill="rgba(255,255,255,0.5)"/>
    <path id="路径_129" data-name="路径 129" d="M893.3,1979.66h-7.562l2.792-8.505a1.579,1.579,0,0,0-1.521-1.979h-9.435a1.576,1.576,0,0,0-1.56,1.363l-2.1,15.726a1.574,1.574,0,0,0,1.559,1.782h7.778l-3.021,12.745a1.571,1.571,0,0,0,2.89,1.147l11.532-19.92A1.569,1.569,0,0,0,893.3,1979.66Z" transform="translate(2509.093 -4230.176)" fill="rgba(255,255,255,0.5)"/>
    <path id="路径_130" data-name="路径 130" d="M825.67,2044.612l-6.937-2.6v-7.791a2.584,2.584,0,0,0-1.681-2.42l-7.181-2.693a2.551,2.551,0,0,0-1.817,0l-7.181,2.693a2.585,2.585,0,0,0-1.68,2.42v7.791l-6.937,2.6a2.589,2.589,0,0,0-1.673,2.42v7.907a2.588,2.588,0,0,0,1.429,2.312l7.181,3.59a2.565,2.565,0,0,0,2.312,0l7.461-3.734,7.462,3.734a2.565,2.565,0,0,0,2.312,0l7.181-3.59a2.588,2.588,0,0,0,1.429-2.312v-7.907A2.585,2.585,0,0,0,825.67,2044.612Zm-9.379-2.542-6.1,2.291v-4.9l6.1-2.657Zm-14.649-7.95,7.324-2.743,7.325,2.743v.043l-7.325,2.973-7.324-2.973Zm6.032,20.9-6.1,3.052V2052.4l6.1-2.786Zm0-8.043-7.325,2.973-7.325-2.973v-.043l7.325-2.743,7.325,2.743Zm17.235,8.043-6.1,3.052V2052.4l6.1-2.786Zm0-8.043-7.325,2.973-7.325-2.973v-.043l7.325-2.743,7.325,2.743Z" transform="translate(2509.417 -4229.941)" fill="rgba(255,255,255,0.5)"/>
    <path id="路径_131" data-name="路径 131" d="M890.169,2044.959a5.778,5.778,0,1,1-5.778-5.778A5.774,5.774,0,0,1,890.169,2044.959Zm8.345-5.778a5.778,5.778,0,1,0,5.778,5.778A5.773,5.773,0,0,0,898.514,2039.181Zm-28.247,0a5.778,5.778,0,1,0,5.778,5.778A5.774,5.774,0,0,0,870.267,2039.181Z" transform="translate(2508.51 -4230.181)" fill="rgba(255,255,255,0.5)"/>
    <path id="路径_132" data-name="路径 132" d="M902.059,2100.1l-1.411-1.411a1,1,0,0,0-1.412,0l-.705.7-1.8-1.8a3.974,3.974,0,0,0-1.02-3.842l-2.822-2.822a9.977,9.977,0,0,0-14.111,0l5.644,2.822v1.169a3.989,3.989,0,0,0,1.169,2.822l3.065,3.064a3.972,3.972,0,0,0,3.842,1.02l1.8,1.8-.7.706a1,1,0,0,0,0,1.411l1.411,1.411a1,1,0,0,0,1.412,0l5.644-5.644a1,1,0,0,0,0-1.411Zm-17.881-.948a6.1,6.1,0,0,1-.614-.745l-15.909,14.853a3.856,3.856,0,1,0,5.451,5.45l14.85-15.906a6.118,6.118,0,0,1-.713-.587l-3.065-3.065Z" transform="translate(2508.57 -4230.001)" fill="rgba(255,255,255,0.5)"/>
    <path id="路径_133" data-name="路径 133" d="M970.571,2100.662h-7.562l2.792-8.505a1.579,1.579,0,0,0-1.521-1.979h-9.435a1.577,1.577,0,0,0-1.56,1.363l-2.1,15.726a1.575,1.575,0,0,0,1.559,1.783h7.778l-3.021,12.744a1.571,1.571,0,0,0,2.89,1.147l11.532-19.92A1.57,1.57,0,0,0,970.571,2100.662Z" transform="translate(2508.825 -4233.178)" fill="rgba(255,255,255,0.5)"/>
    <path id="路径_134" data-name="路径 134" d="M901.094,2162.558l-6.937-2.6v-7.791a2.585,2.585,0,0,0-1.68-2.42l-7.181-2.693a2.552,2.552,0,0,0-1.817,0l-7.181,2.693a2.584,2.584,0,0,0-1.681,2.42v7.791l-6.937,2.6a2.589,2.589,0,0,0-1.673,2.42v7.906a2.588,2.588,0,0,0,1.429,2.313l7.181,3.59a2.568,2.568,0,0,0,2.313,0l7.461-3.734,7.461,3.734a2.565,2.565,0,0,0,2.312,0l7.182-3.59a2.588,2.588,0,0,0,1.429-2.313v-7.906A2.585,2.585,0,0,0,901.094,2162.558Zm-9.378-2.542-6.1,2.291v-4.9l6.1-2.657Zm-14.65-7.95,7.325-2.743,7.325,2.743v.043l-7.325,2.973-7.325-2.973Zm6.032,20.905-6.1,3.052v-5.681l6.1-2.786Zm0-8.043-7.325,2.973-7.324-2.973v-.043l7.324-2.744,7.325,2.744Zm17.235,8.043-6.1,3.052v-5.681l6.1-2.786Zm0-8.043-7.325,2.973-7.325-2.973v-.043l7.325-2.744,7.325,2.744Z" transform="translate(2508.993 -4231.887)" fill="rgba(255,255,255,0.5)"/>
    <path id="路径_135" data-name="路径 135" d="M967.437,2165.407a5.778,5.778,0,1,1-5.778-5.778A5.774,5.774,0,0,1,967.437,2165.407Zm8.345-5.778a5.778,5.778,0,1,0,5.778,5.778A5.774,5.774,0,0,0,975.782,2159.629Zm-28.247,0a5.778,5.778,0,1,0,5.778,5.778A5.774,5.774,0,0,0,947.535,2159.629Z" transform="translate(2509.242 -4234.629)" fill="rgba(255,255,255,0.5)"/>
    <path id="路径_136" data-name="路径 136" d="M817.878,2098.415h-7.561l2.791-8.505a1.579,1.579,0,0,0-1.52-1.979h-9.436a1.575,1.575,0,0,0-1.559,1.363l-2.1,15.726a1.576,1.576,0,0,0,1.56,1.783h7.777l-3.02,12.744a1.571,1.571,0,0,0,2.889,1.147l11.533-19.92A1.57,1.57,0,0,0,817.878,2098.415Z" transform="translate(2508.518 -4230.931)" fill="rgba(255,255,255,0.5)"/>
    <path id="路径_137" data-name="路径 137" d="M814.744,2152.7a5.777,5.777,0,1,1-5.778-5.778A5.774,5.774,0,0,1,814.744,2152.7Zm8.346-5.778a5.777,5.777,0,1,0,5.778,5.778A5.774,5.774,0,0,0,823.09,2146.922Zm-28.247,0a5.777,5.777,0,1,0,5.778,5.778A5.774,5.774,0,0,0,794.843,2146.922Z" transform="translate(2508.935 -4221.922)" fill="rgba(255,255,255,0.5)"/>
    <path id="路径_138" data-name="路径 138" d="M979.327,2219.991l-1.412-1.411a1,1,0,0,0-1.411,0l-.705.7-1.8-1.8a3.974,3.974,0,0,0-1.02-3.842l-2.822-2.822a9.977,9.977,0,0,0-14.111,0l5.644,2.822v1.169a3.991,3.991,0,0,0,1.169,2.822l3.065,3.064a3.975,3.975,0,0,0,3.842,1.02l1.8,1.8-.7.706a1,1,0,0,0,0,1.411l1.411,1.411a1,1,0,0,0,1.412,0l5.644-5.644a1,1,0,0,0,0-1.411Zm-17.881-.948a6.028,6.028,0,0,1-.614-.745l-15.909,14.853a3.856,3.856,0,1,0,5.45,5.45l14.851-15.907a6.036,6.036,0,0,1-.713-.586l-3.065-3.065Z" transform="translate(2509.302 -4232.896)" fill="rgba(255,255,255,0.5)"/>
    <path id="路径_139" data-name="路径 139" d="M978.362,2281.9l-6.937-2.6v-7.792a2.586,2.586,0,0,0-1.68-2.42l-7.181-2.693a2.552,2.552,0,0,0-1.817,0l-7.181,2.693a2.585,2.585,0,0,0-1.681,2.42v7.792l-6.937,2.6a2.589,2.589,0,0,0-1.673,2.42v7.907a2.588,2.588,0,0,0,1.429,2.312l7.181,3.591a2.572,2.572,0,0,0,2.313,0l7.461-3.735,7.461,3.735a2.57,2.57,0,0,0,2.312,0l7.182-3.591a2.588,2.588,0,0,0,1.429-2.312v-7.907A2.585,2.585,0,0,0,978.362,2281.9Zm-9.378-2.542-6.1,2.291v-4.9l6.1-2.657Zm-14.65-7.949,7.325-2.744,7.325,2.744v.043l-7.325,2.973-7.325-2.973Zm6.032,20.9-6.1,3.052v-5.68l6.1-2.787Zm0-8.043-7.325,2.973-7.324-2.973v-.043l7.324-2.743,7.325,2.743Zm17.235,8.043-6.1,3.052v-5.68l6.1-2.787Zm0-8.043-7.325,2.973-7.325-2.973v-.043l7.325-2.743,7.325,2.743Z" transform="translate(2508.725 -4232.228)" fill="rgba(255,255,255,0.5)"/>
    <path id="路径_140" data-name="路径 140" d="M826.634,2218.007l-1.411-1.411a1,1,0,0,0-1.411,0l-.705.705-1.8-1.8a3.974,3.974,0,0,0-1.019-3.842l-2.822-2.822a9.979,9.979,0,0,0-14.112,0l5.645,2.822v1.169a3.99,3.99,0,0,0,1.169,2.822l3.065,3.064a3.975,3.975,0,0,0,3.842,1.02l1.8,1.8-.705.706a1,1,0,0,0,0,1.411l1.411,1.411a1,1,0,0,0,1.411,0l5.645-5.644a1,1,0,0,0,0-1.411Zm-17.88-.948a6.128,6.128,0,0,1-.615-.745l-15.908,14.853a3.856,3.856,0,1,0,5.45,5.45l14.851-15.907a6.1,6.1,0,0,1-.714-.586l-3.064-3.065Z" transform="translate(2508.994 -4230.912)" fill="rgba(255,255,255,0.5)"/>
    <path id="路径_141" data-name="路径 141" d="M893.3,2215.692h-7.562l2.792-8.5a1.579,1.579,0,0,0-1.521-1.979h-9.435a1.576,1.576,0,0,0-1.56,1.363l-2.1,15.726a1.575,1.575,0,0,0,1.559,1.782h7.778l-3.021,12.745a1.571,1.571,0,0,0,2.89,1.146l11.532-19.919A1.569,1.569,0,0,0,893.3,2215.692Z" transform="translate(2509.093 -4231.208)" fill="rgba(255,255,255,0.5)"/>
    <path id="路径_142" data-name="路径 142" d="M825.67,2280.574l-6.937-2.6v-7.791a2.583,2.583,0,0,0-1.681-2.42l-7.181-2.693a2.549,2.549,0,0,0-1.817,0l-7.181,2.693a2.584,2.584,0,0,0-1.68,2.42v7.791l-6.937,2.6a2.588,2.588,0,0,0-1.673,2.42v7.906a2.588,2.588,0,0,0,1.429,2.313l7.181,3.59a2.572,2.572,0,0,0,2.312,0l7.461-3.734,7.462,3.734a2.572,2.572,0,0,0,2.312,0l7.181-3.59a2.588,2.588,0,0,0,1.429-2.313v-7.906A2.585,2.585,0,0,0,825.67,2280.574Zm-9.379-2.542-6.1,2.29v-4.9l6.1-2.657Zm-14.649-7.95,7.324-2.743,7.325,2.743v.043l-7.325,2.973-7.324-2.973Zm6.032,20.9-6.1,3.052v-5.68l6.1-2.786Zm0-8.042-7.325,2.973-7.325-2.973v-.044l7.325-2.743,7.325,2.743Zm17.235,8.042-6.1,3.052v-5.68l6.1-2.786Zm0-8.042-7.325,2.973-7.325-2.973v-.044l7.325-2.743,7.325,2.743Z" transform="translate(2509.417 -4230.903)" fill="rgba(255,255,255,0.5)"/>
    <path id="路径_143" data-name="路径 143" d="M890.169,2280.99a5.778,5.778,0,1,1-5.778-5.777A5.774,5.774,0,0,1,890.169,2280.99Zm8.345-5.777a5.778,5.778,0,1,0,5.778,5.777A5.773,5.773,0,0,0,898.514,2275.213Zm-28.247,0a5.778,5.778,0,1,0,5.778,5.777A5.773,5.773,0,0,0,870.267,2275.213Z" transform="translate(2508.51 -4231.213)" fill="rgba(255,255,255,0.5)"/>
    <path id="路径_144" data-name="路径 144" d="M902.059,1864.064l-1.411-1.411a1,1,0,0,0-1.412,0l-.705.705-1.8-1.8a3.975,3.975,0,0,0-1.02-3.842l-2.822-2.822a9.979,9.979,0,0,0-14.111,0l5.644,2.822v1.169a3.987,3.987,0,0,0,1.169,2.822l3.065,3.065a3.974,3.974,0,0,0,3.842,1.019l1.8,1.8-.7.7a1,1,0,0,0,0,1.411l1.411,1.411a1,1,0,0,0,1.412,0l5.644-5.644a1,1,0,0,0,0-1.411Zm-17.881-.948a5.954,5.954,0,0,1-.614-.745l-15.909,14.853a3.857,3.857,0,1,0,5.451,5.451l14.85-15.907a6.019,6.019,0,0,1-.713-.587l-3.065-3.065Z" transform="translate(2508.57 -4228.97)" fill="rgba(255,255,255,0.5)"/>
    <path id="路径_145" data-name="路径 145" d="M970.571,1866.845h-7.562l2.792-8.505a1.579,1.579,0,0,0-1.521-1.979h-9.435a1.576,1.576,0,0,0-1.56,1.363l-2.1,15.726a1.574,1.574,0,0,0,1.559,1.782h7.778l-3.021,12.745a1.571,1.571,0,0,0,2.89,1.147l11.532-19.92A1.57,1.57,0,0,0,970.571,1866.845Z" transform="translate(2508.825 -4234.361)" fill="rgba(255,255,255,0.5)"/>
    <path id="路径_146" data-name="路径 146" d="M901.094,1926.526l-6.937-2.6v-7.792a2.586,2.586,0,0,0-1.68-2.42l-7.181-2.693a2.551,2.551,0,0,0-1.817,0l-7.181,2.693a2.585,2.585,0,0,0-1.681,2.42v7.792l-6.937,2.6a2.589,2.589,0,0,0-1.673,2.42v7.907a2.588,2.588,0,0,0,1.429,2.312l7.181,3.591a2.574,2.574,0,0,0,2.313,0l7.461-3.735,7.461,3.735a2.572,2.572,0,0,0,2.312,0l7.182-3.591a2.588,2.588,0,0,0,1.429-2.312v-7.907A2.585,2.585,0,0,0,901.094,1926.526Zm-9.378-2.542-6.1,2.291v-4.9l6.1-2.657Zm-14.65-7.95,7.325-2.743,7.325,2.743v.044l-7.325,2.973-7.325-2.973Zm6.032,20.9-6.1,3.052v-5.68l6.1-2.787Zm0-8.043-7.325,2.973-7.324-2.973v-.043l7.324-2.743,7.325,2.743Zm17.235,8.043-6.1,3.052v-5.68l6.1-2.787Zm0-8.043-7.325,2.973-7.325-2.973v-.043l7.325-2.743,7.325,2.743Z" transform="translate(2508.993 -4231.854)" fill="rgba(255,255,255,0.5)"/>
    <path id="路径_147" data-name="路径 147" d="M967.437,1931.59a5.778,5.778,0,1,1-5.778-5.778A5.774,5.774,0,0,1,967.437,1931.59Zm8.345-5.778a5.778,5.778,0,1,0,5.778,5.778A5.774,5.774,0,0,0,975.782,1925.812Zm-28.247,0a5.778,5.778,0,1,0,5.778,5.778A5.774,5.774,0,0,0,947.535,1925.812Z" transform="translate(2509.242 -4236.812)" fill="rgba(255,255,255,0.5)"/>
  </g>
</svg>
