<svg xmlns="http://www.w3.org/2000/svg" width="27.345" height="27.344" viewBox="0 0 27.345 27.344">
  <defs>
    <style>
      .cls-1 {
        fill: #356eca;
      }
    </style>
  </defs>
  <path id="路径_36" data-name="路径 36" class="cls-1" d="M3056,2609.962a13.672,13.672,0,1,0,13.673,13.672A13.67,13.67,0,0,0,3056,2609.962Zm0,5.292a4.852,4.852,0,1,1-4.851,4.851A4.852,4.852,0,0,1,3056,2615.254Zm0,18.965a10.564,10.564,0,0,1-8.076-3.76,6.145,6.145,0,0,1,5.43-3.3,1.348,1.348,0,0,1,.392.061,6.876,6.876,0,0,0,4.509,0,1.342,1.342,0,0,1,.392-.061,6.147,6.147,0,0,1,5.43,3.3A10.568,10.568,0,0,1,3056,2634.219Z" transform="translate(-3042.33 -2609.962)"/>
</svg>
