<svg xmlns="http://www.w3.org/2000/svg" xmlns:xlink="http://www.w3.org/1999/xlink" width="64.16" height="67.915" viewBox="0 0 64.16 67.915">
  <defs>
    <linearGradient id="linear-gradient" x1="0.374" y1="0.024" x2="0.664" y2="1.016" gradientUnits="objectBoundingBox">
      <stop offset="0" stop-color="#879fe9"/>
      <stop offset="1" stop-color="#41c5e9"/>
    </linearGradient>
    <clipPath id="clip-path">
      <rect id="矩形_341" data-name="矩形 341" width="64.16" height="67.915" rx="10" transform="translate(4081.887 -536.123)" fill="url(#linear-gradient)"/>
    </clipPath>
    <filter id="路径_171" x="9.66" y="5.721" width="45.445" height="61.912" filterUnits="userSpaceOnUse">
      <feOffset dy="3" input="SourceAlpha"/>
      <feGaussianBlur stdDeviation="3" result="blur"/>
      <feFlood flood-color="#2749ba"/>
      <feComposite operator="in" in2="blur"/>
      <feComposite in="SourceGraphic"/>
    </filter>
  </defs>
  <g id="组_317" data-name="组 317" transform="translate(-4049.887 587.123)">
    <rect id="矩形_156" data-name="矩形 156" width="64.16" height="67.915" rx="10" transform="translate(4049.887 -587.123)" fill="url(#linear-gradient)"/>
    <g id="蒙版组_6" data-name="蒙版组 6" transform="translate(-32 -51)" clip-path="url(#clip-path)">
      <g id="路径_333" data-name="路径 333" transform="translate(4113.718 -515.282)" fill="none">
        <path d="M22.931,0A22.931,22.931,0,1,1,0,22.931,22.931,22.931,0,0,1,22.931,0Z" stroke="none"/>
        <path d="M 22.93116760253906 6.000003814697266 C 13.59529113769531 6.000003814697266 6.000003814697266 13.59529113769531 6.000003814697266 22.93116760253906 C 6.000003814697266 32.26704406738281 13.59529113769531 39.86233139038086 22.93116760253906 39.86233139038086 C 32.26704406738281 39.86233139038086 39.86233139038086 32.26704406738281 39.86233139038086 22.93116760253906 C 39.86233139038086 13.59529113769531 32.26704406738281 6.000003814697266 22.93116760253906 6.000003814697266 M 22.93116760253906 3.814697265625e-06 C 35.595703125 3.814697265625e-06 45.86233139038086 10.26662826538086 45.86233139038086 22.93116760253906 C 45.86233139038086 35.595703125 35.595703125 45.86233139038086 22.93116760253906 45.86233139038086 C 10.26662826538086 45.86233139038086 3.814697265625e-06 35.595703125 3.814697265625e-06 22.93116760253906 C 3.814697265625e-06 10.26662826538086 10.26662826538086 3.814697265625e-06 22.93116760253906 3.814697265625e-06 Z" stroke="none" fill="rgba(179,219,246,0.36)"/>
      </g>
    </g>
    <g transform="matrix(1, 0, 0, 1, 4049.89, -587.12)" filter="url(#路径_171)">
      <path id="路径_171-2" data-name="路径 171" d="M1392.933,2963.32h-9.9l3.653-11.131a2.066,2.066,0,0,0-1.989-2.591h-12.349a2.061,2.061,0,0,0-2.041,1.785l-2.745,20.582a2.064,2.064,0,0,0,2.041,2.333h10.181l-3.954,16.681a2.055,2.055,0,0,0,3.781,1.5l15.094-26.072A2.054,2.054,0,0,0,1392.933,2963.32Z" transform="translate(-1348.89 -2937.88)" fill="#fff"/>
    </g>
  </g>
</svg>
