<svg xmlns="http://www.w3.org/2000/svg" width="42.302" height="42.303" viewBox="0 0 42.302 42.303">
  <defs>
    <style>
      .cls-1 {
        fill: #fff;
      }
    </style>
  </defs>
  <path id="路径_15" data-name="路径 15" class="cls-1" d="M3056.689,3358.717a21.151,21.151,0,1,0,21.151,21.152A21.147,21.147,0,0,0,3056.689,3358.717Zm0,8.188a7.505,7.505,0,1,1-7.506,7.5A7.5,7.5,0,0,1,3056.689,3366.905Zm0,29.339a16.342,16.342,0,0,1-12.495-5.817,9.51,9.51,0,0,1,8.4-5.1,2.077,2.077,0,0,1,.6.094,10.64,10.64,0,0,0,6.977,0,2.082,2.082,0,0,1,.6-.094,9.509,9.509,0,0,1,8.4,5.1A16.343,16.343,0,0,1,3056.689,3396.244Z" transform="translate(-3035.538 -3358.717)"/>
</svg>
