<svg xmlns="http://www.w3.org/2000/svg" xmlns:xlink="http://www.w3.org/1999/xlink" width="64.235" height="68.471" viewBox="0 0 64.235 68.471">
  <defs>
    <linearGradient id="linear-gradient" x1="0.211" y1="0.117" x2="0.853" y2="0.887" gradientUnits="objectBoundingBox">
      <stop offset="0" stop-color="#fc6481"/>
      <stop offset="1" stop-color="#cdb1dd"/>
    </linearGradient>
    <clipPath id="clip-path">
      <rect id="矩形_343" data-name="矩形 343" width="64.235" height="68.471" rx="10" transform="translate(4323.887 -590.711)" fill="url(#linear-gradient)"/>
    </clipPath>
  </defs>
  <g id="组_318" data-name="组 318" transform="translate(-4243.887 590.711)">
    <rect id="矩形_160" data-name="矩形 160" width="64.235" height="68.471" rx="10" transform="translate(4243.887 -590.711)" fill="url(#linear-gradient)"/>
    <g id="蒙版组_7" data-name="蒙版组 7" transform="translate(-80)" clip-path="url(#clip-path)">
      <g id="矩形_342" data-name="矩形 342" transform="translate(4360 -569)" fill="none" stroke="rgba(255,170,211,0.46)" stroke-width="6">
        <rect width="44" height="47" rx="7" stroke="none"/>
        <rect x="3" y="3" width="38" height="41" rx="4" fill="none"/>
      </g>
    </g>
    <path id="路径_173" data-name="路径 173" d="M1405.207,3137.037l-8.515-3.19v-9.563a3.172,3.172,0,0,0-2.063-2.97l-8.813-3.305a3.14,3.14,0,0,0-2.23,0l-8.813,3.305a3.173,3.173,0,0,0-2.063,2.97v9.563l-8.515,3.19a3.179,3.179,0,0,0-2.052,2.971v9.7a3.176,3.176,0,0,0,1.753,2.838l8.814,4.407a3.164,3.164,0,0,0,2.838,0l9.157-4.583,9.158,4.583a3.16,3.16,0,0,0,2.837,0l8.814-4.407a3.178,3.178,0,0,0,1.754-2.838v-9.7A3.173,3.173,0,0,0,1405.207,3137.037Zm-11.51-3.121-7.492,2.813v-6.012l7.492-3.262Zm-17.981-9.756,8.991-3.366,8.99,3.366v.053l-8.99,3.649-8.991-3.649Zm7.4,25.656-7.492,3.746v-6.972l7.492-3.419Zm0-9.871-8.989,3.649-8.991-3.649v-.053l8.991-3.367,8.989,3.367Zm21.153,9.871-7.492,3.746v-6.972l7.492-3.419Zm0-9.871-8.99,3.649-8.989-3.649v-.053l8.989-3.367,8.99,3.367Z" transform="translate(2891.521 -3694)" fill="#fff"/>
  </g>
</svg>
