<svg xmlns="http://www.w3.org/2000/svg" xmlns:xlink="http://www.w3.org/1999/xlink" width="64.235" height="68.168" viewBox="0 0 64.235 68.168">
  <defs>
    <linearGradient id="linear-gradient" x1="0.151" y1="0.111" x2="0.913" y2="0.869" gradientUnits="objectBoundingBox">
      <stop offset="0.026" stop-color="#ea705c"/>
      <stop offset="1" stop-color="#dbd7bb"/>
    </linearGradient>
    <clipPath id="clip-path">
      <rect id="矩形_344" data-name="矩形 344" width="64.235" height="68.168" rx="10" transform="translate(5988.35 971.879)" fill="url(#linear-gradient)"/>
    </clipPath>
  </defs>
  <g id="组_320" data-name="组 320" transform="translate(-5921.35 -1016.879)">
    <rect id="矩形_154" data-name="矩形 154" width="64.235" height="68.168" rx="10" transform="translate(5921.35 1016.879)" fill="url(#linear-gradient)"/>
    <g id="蒙版组_8" data-name="蒙版组 8" transform="translate(-67 45)" clip-path="url(#clip-path)">
      <g id="多边形_1" data-name="多边形 1" transform="translate(6009 978)" fill="none">
        <path d="M30.468,10.247a7,7,0,0,1,12.065,0l24.256,41.2A7,7,0,0,1,60.756,62H12.244A7,7,0,0,1,6.212,51.449Z" stroke="none"/>
        <path d="M 36.5 12.79788589477539 L 35.63824462890625 13.29057312011719 L 11.38217163085938 54.49267196655273 C 11.18685531616211 54.82442855834961 11.18471527099609 55.16210174560547 11.37578582763672 55.49631500244141 C 11.56685638427734 55.83054351806641 11.85894393920898 56 12.24392700195312 56 L 60.75607299804688 56 C 61.14105606079102 56 61.43314361572266 55.83054351806641 61.62421417236328 55.49631500244141 C 61.81528472900391 55.16210174560547 61.81314086914062 54.82442855834961 61.61784362792969 54.49267196655273 L 37.36175537109375 13.29058456420898 C 37.16928482055664 12.96365737915039 36.87935638427734 12.79788589477539 36.5 12.79788589477539 M 36.5 6.797893524169922 C 38.83937454223633 6.797893524169922 41.17874908447266 7.947471618652344 42.53228759765625 10.24662780761719 L 66.78836822509766 51.44873046875 C 69.53553009033203 56.11514282226562 66.17108917236328 62 60.75607299804688 62 L 12.24392700195312 62 C 6.828910827636719 62 3.464469909667969 56.11514282226562 6.211631774902344 51.44873046875 L 30.46771240234375 10.24662780761719 C 31.82125091552734 7.947471618652344 34.16062545776367 6.797893524169922 36.5 6.797893524169922 Z" stroke="none" fill="rgba(255,222,206,0.55)"/>
      </g>
    </g>
    <path id="路径_170" data-name="路径 170" d="M1392.537,3218.044a7.385,7.385,0,1,1-7.385-7.385A7.38,7.38,0,0,1,1392.537,3218.044Zm10.666-7.385a7.384,7.384,0,1,0,7.385,7.385A7.38,7.38,0,0,0,1403.2,3210.66Zm-36.1,0a7.384,7.384,0,1,0,7.385,7.385A7.38,7.38,0,0,0,1367.1,3210.66Z" transform="translate(4568 -2167)" fill="#fff"/>
  </g>
</svg>
