<svg xmlns="http://www.w3.org/2000/svg" xmlns:xlink="http://www.w3.org/1999/xlink" width="50" height="62.168" viewBox="0 0 50 62.168">
  <defs>
    <linearGradient id="linear-gradient" x1="0.151" y1="0.111" x2="0.913" y2="0.869" gradientUnits="objectBoundingBox">
      <stop offset="0.026" stop-color="#ea705c"/>
      <stop offset="1" stop-color="#dbd7bb"/>
    </linearGradient>
    <clipPath id="clip-path">
      <path id="矩形_339" data-name="矩形 339" d="M7.567,0H43.235a0,0,0,0,1,0,0V62.168a0,0,0,0,1,0,0H7.567A7.567,7.567,0,0,1,0,54.6V7.567A7.567,7.567,0,0,1,7.567,0Z" transform="translate(6755.35 2580.879)" fill="url(#linear-gradient)"/>
    </clipPath>
    <filter id="路径_170" x="0" y="18.781" width="50" height="27" filterUnits="userSpaceOnUse">
      <feOffset dy="3" input="SourceAlpha"/>
      <feGaussianBlur stdDeviation="3" result="blur"/>
      <feFlood flood-color="#aa571b"/>
      <feComposite operator="in" in2="blur"/>
      <feComposite in="SourceGraphic"/>
    </filter>
  </defs>
  <g id="组_328" data-name="组 328" transform="translate(-3676.717 832.121)">
    <path id="矩形_154" data-name="矩形 154" d="M7.567,0H43.235a0,0,0,0,1,0,0V62.168a0,0,0,0,1,0,0H7.567A7.567,7.567,0,0,1,0,54.6V7.567A7.567,7.567,0,0,1,7.567,0Z" transform="translate(3680.35 -832.121)" fill="url(#linear-gradient)"/>
    <g id="蒙版组_4" data-name="蒙版组 4" transform="translate(-3075 -3413)" clip-path="url(#clip-path)">
      <g id="多边形_1" data-name="多边形 1" transform="translate(6768 2603)" fill="none">
        <path d="M17.465,10.273a7,7,0,0,1,12.071,0L40.8,29.454A7,7,0,0,1,34.769,40H12.231A7,7,0,0,1,6.2,29.454Z" stroke="none"/>
        <path d="M 23.50000190734863 10.81899642944336 C 22.98377227783203 10.81899642944336 21.69833183288574 10.9632453918457 20.91336250305176 12.29935455322266 L 9.644523620605469 31.48035430908203 C 8.84918212890625 32.83413696289062 9.367603302001953 34.03617477416992 9.627410888671875 34.49014282226562 C 9.887222290039062 34.94410705566406 10.66103363037109 35.99999618530273 12.23116302490234 35.99999618530273 L 34.76884078979492 35.99999618530273 C 36.33897399902344 35.99999618530273 37.11277008056641 34.94410705566406 37.37258148193359 34.49014282226562 C 37.63239288330078 34.03617477416992 38.15082168579102 32.83413696289062 37.35547256469727 31.48035430908203 L 26.08662223815918 12.29934692382812 C 25.30166244506836 10.9632453918457 24.01623153686523 10.81899642944336 23.50000190734863 10.81899642944336 M 23.5 6.818992614746094 C 25.84129905700684 6.818992614746094 28.18259620666504 7.970378875732422 29.53547096252441 10.27315521240234 L 40.80431365966797 29.45415496826172 C 43.54587173461914 34.12062454223633 40.18105316162109 39.99999618530273 34.76884078979492 39.99999618530273 L 12.23116302490234 39.99999618530273 C 6.818950653076172 39.99999618530273 3.454132080078125 34.12062454223633 6.195682525634766 29.45415496826172 L 17.46452140808105 10.27315521240234 C 18.81740188598633 7.970378875732422 21.1587028503418 6.818992614746094 23.5 6.818992614746094 Z" stroke="none" fill="rgba(255,222,206,0.55)"/>
      </g>
    </g>
    <g transform="matrix(1, 0, 0, 1, 3676.72, -832.12)" filter="url(#路径_170)">
      <path id="路径_170-2" data-name="路径 170" d="M1380.362,3215.16a4.648,4.648,0,1,1-4.646-4.5A4.571,4.571,0,0,1,1380.362,3215.16Zm6.71-4.5a4.5,4.5,0,1,0,4.645,4.5A4.572,4.572,0,0,0,1387.072,3210.66Zm-22.71,0a4.5,4.5,0,1,0,4.646,4.5A4.571,4.571,0,0,0,1364.361,3210.66Z" transform="translate(-1350.72 -3185.88)" fill="#fff"/>
    </g>
  </g>
</svg>
