<svg xmlns="http://www.w3.org/2000/svg" xmlns:xlink="http://www.w3.org/1999/xlink" width="43.16" height="61.915" viewBox="0 0 43.16 61.915">
  <defs>
    <linearGradient id="linear-gradient" x1="0.374" y1="0.024" x2="0.664" y2="1.016" gradientUnits="objectBoundingBox">
      <stop offset="0" stop-color="#879fe9"/>
      <stop offset="1" stop-color="#41c5e9"/>
    </linearGradient>
    <clipPath id="clip-path">
      <path id="矩形_335" data-name="矩形 335" d="M6.093,0H43.16a0,0,0,0,1,0,0V61.915a0,0,0,0,1,0,0H6.093A6.093,6.093,0,0,1,0,55.822V6.093A6.093,6.093,0,0,1,6.093,0Z" transform="translate(6940.887 2415.877)" fill="url(#linear-gradient)"/>
    </clipPath>
    <filter id="路径_171" x="7.66" y="8.721" width="26.914" height="35.863" filterUnits="userSpaceOnUse">
      <feOffset dy="3" input="SourceAlpha"/>
      <feGaussianBlur stdDeviation="2" result="blur"/>
      <feFlood flood-color="#2749ba"/>
      <feComposite operator="in" in2="blur"/>
      <feComposite in="SourceGraphic"/>
    </filter>
  </defs>
  <g id="组_333" data-name="组 333" transform="translate(-3679 1079.123)">
    <path id="矩形_156" data-name="矩形 156" d="M6.093,0H43.16a0,0,0,0,1,0,0V61.915a0,0,0,0,1,0,0H6.093A6.093,6.093,0,0,1,0,55.822V6.093A6.093,6.093,0,0,1,6.093,0Z" transform="translate(3679 -1079.123)" fill="url(#linear-gradient)"/>
    <g id="蒙版组_1" data-name="蒙版组 1" transform="translate(-3261.887 -3495)" clip-path="url(#clip-path)">
      <g id="路径_333" data-name="路径 333" transform="translate(6962 2445)" fill="none">
        <path d="M16.79,0A16.79,16.79,0,1,1,0,16.79,16.79,16.79,0,0,1,16.79,0Z" stroke="none"/>
        <path d="M 16.7900390625 4 C 13.37369918823242 4 10.16183853149414 5.330398559570312 7.746118545532227 7.746118545532227 C 5.330398559570312 10.16183853149414 4 13.37369918823242 4 16.7900390625 C 4 20.20637893676758 5.330398559570312 23.41823959350586 7.746118545532227 25.83395957946777 C 10.16183853149414 28.24967956542969 13.37369918823242 29.580078125 16.7900390625 29.580078125 C 20.20637893676758 29.580078125 23.41823959350586 28.24967956542969 25.83395957946777 25.83395957946777 C 28.24967956542969 23.41823959350586 29.580078125 20.20637893676758 29.580078125 16.7900390625 C 29.580078125 13.37369918823242 28.24967956542969 10.16183853149414 25.83395957946777 7.746118545532227 C 23.41823959350586 5.330398559570312 20.20637893676758 4 16.7900390625 4 M 16.7900390625 0 C 26.06291961669922 0 33.580078125 7.517158508300781 33.580078125 16.7900390625 C 33.580078125 26.06291961669922 26.06291961669922 33.580078125 16.7900390625 33.580078125 C 7.517158508300781 33.580078125 0 26.06291961669922 0 16.7900390625 C 0 7.517158508300781 7.517158508300781 0 16.7900390625 0 Z" stroke="none" fill="rgba(179,219,246,0.36)"/>
      </g>
    </g>
    <g transform="matrix(1, 0, 0, 1, 3679, -1079.12)" filter="url(#路径_171)">
      <path id="路径_171-2" data-name="路径 171" d="M1381.343,2957.055h-5.378l1.985-6.049a1.123,1.123,0,0,0-1.081-1.408h-6.711a1.12,1.12,0,0,0-1.109.97l-1.492,11.185a1.121,1.121,0,0,0,1.109,1.268h5.533l-2.149,9.065a1.117,1.117,0,0,0,2.055.815l8.2-14.168A1.116,1.116,0,0,0,1381.343,2957.055Z" transform="translate(-1353.89 -2937.88)" fill="#fff"/>
    </g>
  </g>
</svg>
